<?xml version="1.0" encoding="UTF-8" standalone="no"?>
<!-- Created with Inkscape (http://www.inkscape.org/) -->

<svg
   xmlns:dc="http://purl.org/dc/elements/1.1/"
   xmlns:cc="http://creativecommons.org/ns#"
   xmlns:rdf="http://www.w3.org/1999/02/22-rdf-syntax-ns#"
   xmlns:svg="http://www.w3.org/2000/svg"
   xmlns="http://www.w3.org/2000/svg"
   xmlns:sodipodi="http://sodipodi.sourceforge.net/DTD/sodipodi-0.dtd"
   xmlns:inkscape="http://www.inkscape.org/namespaces/inkscape"
   preserveAspectRatio="xMinYMin meet"
   viewBox="0 0 50.1 60.473047"
   id="svg2"
   version="1.1"
   inkscape:version="0.92.3 (2405546, 2018-03-11)"
   sodipodi:docname="drawingsmall.svg"
   width="54mm"
   height="16mm">
  <defs
     id="defs4" />
  <sodipodi:namedview
     id="base"
     pagecolor="#ffffff"
     bordercolor="#666666"
     borderopacity="1.0"
     inkscape:pageopacity="0.0"
     inkscape:pageshadow="2"
     inkscape:zoom="2.8"
     inkscape:cx="197.05885"
     inkscape:cy="2.6261667"
     inkscape:document-units="px"
     inkscape:current-layer="layer1"
     showgrid="false"
     inkscape:window-width="1920"
     inkscape:window-height="1017"
     inkscape:window-x="-8"
     inkscape:window-y="-8"
     inkscape:window-maximized="1"
     fit-margin-top="0"
     fit-margin-left="0"
     fit-margin-right="0"
     fit-margin-bottom="0"
     units="mm"
     height="15mm"
     showborder="true"
     borderlayer="false"
     inkscape:showpageshadow="true"
     viewbox-width="203.29"
     scale-x="1.00001" />
  <metadata
     id="metadata7">
    <rdf:RDF>
      <cc:Work
         rdf:about="">
        <dc:format>image/svg+xml</dc:format>
        <dc:type
           rdf:resource="http://purl.org/dc/dcmitype/StillImage" />
        <dc:title></dc:title>
      </cc:Work>
    </rdf:RDF>
  </metadata>
  <g
     inkscape:label="Layer 1"
     inkscape:groupmode="layer"
     id="layer1"
     transform="translate(-43.713725,-829.04643)">
    <flowRoot
       xml:space="preserve"
       id="flowRoot2985"
       style="font-style:normal;font-weight:normal;line-height:0.01%;font-family:sans-serif;letter-spacing:0px;word-spacing:0px;fill:#000000;fill-opacity:1;stroke:none"><flowRegion
         id="flowRegion2987"
         style="font-family:sans-serif"><rect
           id="rect2989"
           width="957.14288"
           height="631.42859"
           x="40"
           y="29.808767"
           style="font-family:sans-serif" /></flowRegion><flowPara
         id="flowPara2991"
         style="font-size:40px;line-height:1.25;font-family:sans-serif"> </flowPara></flowRoot>    <flowRoot
       xml:space="preserve"
       id="flowRoot2993"
       style="font-style:normal;font-weight:normal;line-height:0.01%;font-family:sans-serif;letter-spacing:0px;word-spacing:0px;fill:#000000;fill-opacity:1;stroke:none"><flowRegion
         id="flowRegion2995"
         style="font-family:sans-serif"><rect
           id="rect2997"
           width="837.14288"
           height="522.85712"
           x="94.285713"
           y="112.66591"
           style="font-family:sans-serif" /></flowRegion><flowPara
         id="flowPara2999"
         style="font-size:40px;line-height:1.25;font-family:sans-serif"> </flowPara></flowRoot>    <g
       id="g3005"
       transform="translate(118.18471,103.04569)">
      <g
         style="font-style:normal;font-weight:normal;font-size:403.20315552px;font-family:EPSON;text-align:start;text-anchor:start;fill:#000000;stroke:#000000;stroke-width:1.81818187;stroke-miterlimit:4;stroke-dasharray:none;stroke-opacity:1"
         id="text3007"
         transform="matrix(0.22239505,0,0,0.1397816,-65.229942,677.99473)">
        <path
           d="m 90.591515,506.85986 c -7.48715,-1.30184 -15.299642,-3.906 -23.4375,-7.8125 l -1.953125,3.90625 c 12.695147,13.02107 23.762844,19.53148 33.203125,19.53125 43.294045,-10.09091 79.752335,-16.60132 109.374995,-19.53125 10.41637,-1.30183 15.62469,-3.25496 15.625,-5.85937 -3.1e-4,-6.18464 -13.02113,-10.74193 -39.0625,-13.67188 l -7.8125,7.8125 c -41.01584,7.81275 -69.66165,13.02108 -85.937495,15.625 z M -3.1584854,454.12549 c -8.4e-5,7.48726 -4.5573711,21.15912 -13.6718746,41.01562 -7.1e-5,9.76587 0.65097,16.92732 1.953125,21.48438 2.604091,9.1148 5.8592965,13.67209 9.7656246,13.67187 4.23168456,2.2e-4 7.4868896,-5.20811 9.765625,-15.625 3.5806338,-16.60131 5.5337564,-34.83046 5.8593754,-54.6875 105.79407,-15.95021 201.4971,-24.41375 287.10937,-25.39062 l 3.90625,5.85937 c -9.11496,14.64873 -20.8337,29.62268 -35.15625,44.92188 l 3.90625,3.90625 c 20.50744,-12.69504 36.13242,-22.46066 46.875,-29.29688 16.92667,-0.97627 25.3902,-3.58044 25.39063,-7.8125 -4.3e-4,-7.16115 -9.76605,-18.87989 -29.29688,-35.15625 l -15.625,3.90625 c -63.47688,2.60449 -109.04975,5.20866 -136.71875,7.8125 l 1.95313,-23.4375 c 2.60391,-4.88246 5.20808,-10.09079 7.8125,-15.625 -2.6e-4,-8.13765 -14.9742,-15.2991 -44.92188,-21.48437 l -1.95312,3.90625 c 8.1378,7.16182 13.99717,14.32328 17.57812,21.48437 v 37.10938 c -29.29707,3.25552 -73.567859,8.46385 -132.8124954,15.625 -3.2553008,-7.16115 -7.8125879,-14.3226 -13.671875,-21.48438 l -3.90625,1.95313 c 3.906168,9.44041 5.859291,18.55499 5.859375,27.34375 z M 92.54464,616.23486 C 73.013229,673.5266 32.648686,721.0526 -28.54911,758.81299 l 1.953125,3.90625 C 34.60181,735.3755 80.174681,691.75575 110.12276,631.85986 c 5.20814,-3.90613 7.8123,-7.16133 7.8125,-9.76562 -2e-4,-6.18477 -10.41686,-17.25246 -31.249995,-33.20313 16.601375,-4.55713 35.481565,-8.46337 56.640625,-11.71875 9.11434,8.46371 14.97371,18.88036 17.57812,31.25 -1.30233,31.90115 -1.95337,64.4532 -1.95312,97.65625 -2.5e-4,30.92449 16.92682,49.15364 50.78125,54.6875 16.27573,2.60415 37.10904,3.90624 62.5,3.90625 19.85639,-10e-6 41.99179,-1.95314 66.40625,-5.85937 11.71831,-3.25522 17.57768,-7.16146 17.57812,-11.71875 -4.4e-4,-3.58073 -3.90668,-9.4401 -11.71875,-17.57813 -3.58115,-10.41664 -7.4874,-35.15619 -11.71875,-74.21875 h -3.90625 c -1.95353,30.59902 -3.90666,52.08338 -5.85937,64.45313 -1.30249,9.44012 -6.51082,16.60157 -15.625,21.48437 -7.48737,3.90626 -24.41443,5.85938 -50.78125,5.85938 -29.94823,0 -52.08363,-2.60417 -66.40625,-7.8125 -10.41693,-3.90624 -15.62526,-11.06769 -15.625,-21.48438 -2.6e-4,-30.27337 1.95286,-60.22126 5.85937,-89.84375 2.6039,-7.48685 5.85911,-13.34622 9.76563,-17.57812 -2.8e-4,-4.88267 -13.0211,-16.60141 -39.0625,-35.15625 39.71326,-4.88264 74.21844,-7.4868 103.51562,-7.8125 10.41632,-0.32534 15.62465,-2.92951 15.625,-7.8125 -3.5e-4,-3.90606 -13.67221,-8.46335 -41.01562,-13.67188 l -9.76563,5.85938 C 171.32042,559.59443 116.63298,568.709 55.435265,579.12549 48.599191,577.82357 40.135658,574.56837 30.04464,569.35986 l -3.90625,1.95313 c 14.648309,15.62516 26.367047,24.08869 35.15625,25.39062 7.812343,-2.27849 14.322753,-4.23161 19.53125,-5.85937 5.20816,7.81265 9.114406,16.27618 11.71875,25.39062 z"
           style="font-variant:normal;font-stretch:normal;font-size:500px;font-family:'EPSON 教科書体Ｍ';-inkscape-font-specification:'EPSON 教科書体Ｍ';stroke:#000000;stroke-width:1.81818187;stroke-miterlimit:4;stroke-dasharray:none;stroke-opacity:1"
           id="path3771"
           inkscape:connector-curvature="0" />
        <path
           d="m 502.70089,727.56299 -1.95313,3.90625 c 14.32282,15.625 31.90093,25.39061 52.73438,29.29687 77.47374,-15.62499 145.18201,-23.43749 203.125,-23.4375 42.31732,10e-6 67.70792,0.65105 76.17187,1.95313 8.46312,1.30209 14.32249,1.95313 17.57813,1.95312 3.90581,10e-6 5.85893,-1.95311 5.85937,-5.85937 -4.4e-4,-6.5104 -13.6723,-12.36977 -41.01562,-17.57813 l -23.4375,3.90625 c 1.3017,-4.23174 1.95274,-8.13798 1.95312,-11.71875 -3.8e-4,-4.88277 -2.60454,-9.44005 -7.8125,-13.67187 -8.78942,-7.48692 -25.71649,-12.69525 -50.78125,-15.625 l -1.95312,3.90625 c 14.97362,7.16151 26.04132,13.67192 33.20312,19.53125 3.25486,2.60421 7.1611,8.46357 11.71875,17.57812 -29.94825,1.30211 -61.19822,3.25523 -93.75,5.85938 v -52.73438 c 26.36689,-2.60409 55.66374,-4.55721 87.89063,-5.85937 10.4163,-0.65096 15.62462,-2.60409 15.625,-5.85938 -3.8e-4,-4.23168 -11.71911,-8.78897 -35.15625,-13.67187 l -9.76563,5.85937 c -18.22947,1.95322 -37.7607,3.90634 -58.59375,5.85938 -2.7e-4,-11.71865 1.30182,-19.53115 3.90625,-23.4375 -2.7e-4,-4.55718 -7.16172,-11.06759 -21.48437,-19.53125 33.20284,-3.90612 70.31218,-7.16132 111.32812,-9.76563 5.20797,-0.6509 7.81213,-2.60402 7.8125,-5.85937 -3.7e-4,-2.60402 -5.85974,-6.51027 -17.57812,-11.71875 0.97621,-5.53369 1.62725,-11.39306 1.95312,-17.57813 l 1.95313,-39.0625 c 17.57775,-1.30187 39.71314,-2.60395 66.40625,-3.90625 6.50998,-0.3253 9.76519,-2.27842 9.76562,-5.85937 -4.3e-4,-3.90603 -9.11501,-7.16123 -27.34375,-9.76563 l -7.8125,3.90625 c -11.71913,1.30231 -25.391,2.6044 -41.01562,3.90625 1.30172,-8.46331 1.95276,-14.97372 1.95312,-19.53125 -3.6e-4,-3.25496 -7.16181,-11.06745 -21.48437,-23.4375 33.20275,-3.25493 69.01001,-5.20806 107.42187,-5.85937 6.50997,-0.32525 9.76517,-2.27837 9.76563,-5.85938 -4.6e-4,-3.90596 -12.37024,-7.81221 -37.10938,-11.71875 l -11.71875,3.90625 c -12.37018,1.30237 -25.391,2.60445 -39.0625,3.90625 6.51005,-9.76533 13.02046,-20.18199 19.53125,-31.25 5.20794,-2.92937 7.81211,-5.53353 7.8125,-7.8125 -3.9e-4,-3.5804 -5.20872,-8.78873 -15.625,-15.625 8.78868,-0.32518 17.25221,-0.97622 25.39063,-1.95312 5.20792,-0.6507 7.81209,-2.60383 7.8125,-5.85938 -4.1e-4,-3.25486 -7.16187,-6.51006 -21.48438,-9.76562 l -9.76562,3.90625 -27.34375,3.90625 1.95312,-29.29688 c -3.5e-4,-7.16107 -7.1618,-13.67148 -21.48437,-19.53125 -3.25554,-1.30168 -10.41699,-1.95272 -21.48438,-1.95312 l -1.95312,3.90625 c 10.41634,3.2556 17.57779,8.46393 21.48437,15.625 1.30175,2.27902 1.95279,13.34672 1.95313,33.20312 -13.02116,1.62795 -24.73989,2.93003 -35.15625,3.90625 -6.18519,-0.6507 -14.64872,-4.55694 -25.39063,-11.71875 l -3.90625,3.90625 c 6.18462,8.13837 13.34607,14.64878 21.48438,19.53125 l 7.8125,1.95313 v 5.85937 c 5.53355,23.4378 11.39292,38.41175 17.57812,44.92188 -20.83363,2.60444 -39.71382,4.55756 -56.64062,5.85937 -6.18515,-1.30181 -13.3466,-4.55701 -21.48438,-9.76562 l -1.95312,3.90625 c 12.36954,14.32318 21.48411,21.48463 27.34375,21.48437 l 7.8125,-1.95312 c 19.85648,-3.25495 38.08563,-5.85911 54.6875,-7.8125 9.11425,8.13828 13.67153,15.29973 13.67187,21.48437 v 21.48438 c -21.48469,1.95334 -40.36488,3.25543 -56.64062,3.90625 -8.46382,-1.30187 -14.97423,-2.60395 -19.53125,-3.90625 l -1.95313,3.90625 c 7.81223,6.51063 16.92681,11.06791 27.34375,13.67187 l 15.625,-1.95312 c 11.0674,-1.30188 22.78613,-2.60396 35.15625,-3.90625 -3.4e-4,26.36737 1.30174,43.94548 3.90625,52.73437 -4.55763,-1.30192 -9.76596,-1.95296 -15.625,-1.95312 l -11.71875,7.8125 c -73.24243,10.41681 -121.41946,15.62514 -144.53125,15.625 -7.16162,1.4e-4 -16.92724,-3.25507 -29.29687,-9.76563 l -1.95313,3.90625 c 11.06756,11.39336 20.83317,18.55481 29.29688,21.48438 14.97377,-1.30196 37.10917,-3.25509 66.40625,-5.85938 9.11434,7.16158 13.67162,13.67199 13.67187,19.53125 v 23.4375 c -27.99501,3.90633 -57.9429,7.81258 -89.84375,11.71875 -8.13817,-1.30201 -16.6017,-3.90617 -25.39062,-7.8125 l -1.95313,3.90625 c 10.41653,9.11465 20.18214,15.62506 29.29688,19.53125 l 17.57812,-3.90625 c 31.24979,-4.88274 54.68727,-8.13795 70.3125,-9.76562 v 52.73437 c -45.57312,3.90627 -83.98454,7.81251 -115.23437,11.71875 -12.69544,-0.32551 -28.32042,-4.8828 -46.875,-13.67187 z M 740.98214,452.17236 c -3.3e-4,-3.25491 -7.16178,-14.3226 -21.48438,-33.20312 20.18197,-2.60384 41.66632,-5.208 64.45313,-7.8125 l 3.90625,7.8125 c -4.88318,16.27635 -10.74255,31.2503 -17.57813,44.92187 -8.46389,1.30237 -19.53158,2.60445 -33.20312,3.90625 2.60384,-7.48669 3.90592,-12.69502 3.90625,-15.625 z M 518.32589,411.15674 c -5.20843,83.98463 -22.78654,146.48456 -52.73438,187.5 l 3.90625,1.95312 c 21.4843,-26.04149 38.41137,-54.6873 50.78125,-85.9375 l 11.71875,13.67188 c 2.60405,10.41687 5.20821,22.13561 7.8125,35.15625 v 9.76562 c 4.55716,10.41683 9.11445,15.62516 13.67188,15.625 3.25506,1.6e-4 5.85923,-3.25504 7.8125,-9.76562 20.18212,-4.55712 37.76023,-7.81233 52.73437,-9.76563 2.60397,1.30226 5.85917,1.9533 9.76563,1.95313 3.90603,1.7e-4 6.5102,-1.95295 7.8125,-5.85938 2.92947,-7.48679 6.18467,-20.50761 9.76562,-39.0625 3.90602,-3.25498 5.85915,-5.85915 5.85938,-7.8125 -2.3e-4,-5.2081 -10.41689,-12.36955 -31.25,-21.48437 l -7.8125,3.90625 c -22.13559,4.88305 -44.92203,10.09138 -68.35938,15.625 -5.20845,-3.25498 -11.06782,-5.85914 -17.57812,-7.8125 3.2551,-13.67162 6.5103,-27.34349 9.76562,-41.01563 29.29673,-6.83565 55.33837,-11.39294 78.125,-13.67187 4.55709,3.90654 8.46334,5.85966 11.71875,5.85937 5.53364,2.9e-4 9.43989,-2.60387 11.71875,-7.8125 4.55707,-9.76532 9.7654,-24.08822 15.625,-42.96875 5.2081,-5.85903 7.81226,-10.41632 7.8125,-13.67187 -2.4e-4,-4.88246 -9.76585,-10.74183 -29.29687,-17.57813 l -7.8125,3.90625 c -17.57831,2.60453 -45.57308,7.81286 -83.98438,15.625 -11.06782,-7.1611 -23.4376,-11.71839 -37.10937,-13.67187 l -1.95313,3.90625 c 14.32282,8.46389 21.48427,16.27638 21.48438,23.4375 z m 37.10937,156.25 c -1.95326,-13.02064 -3.90638,-26.6925 -5.85937,-41.01563 20.83318,-5.53362 42.31753,-10.09091 64.45312,-13.67187 l 5.85938,9.76562 c -0.65125,11.71897 -1.95333,22.78666 -3.90625,33.20313 -16.92727,2.60435 -37.10954,6.5106 -60.54688,11.71875 z M 533.95089,454.12549 c 1.953,-13.02053 3.25508,-27.34343 3.90625,-42.96875 25.06495,-5.53351 52.40868,-10.74184 82.03125,-15.625 l 7.8125,5.85937 c -1.3023,12.04461 -3.90646,24.41439 -7.8125,37.10938 -30.59914,3.90655 -59.24494,9.11488 -85.9375,15.625 z"
           style="font-variant:normal;font-stretch:normal;font-size:500px;font-family:'EPSON 教科書体Ｍ';-inkscape-font-specification:'EPSON 教科書体Ｍ';stroke:#000000;stroke-width:1.81818187;stroke-miterlimit:4;stroke-dasharray:none;stroke-opacity:1"
           id="path3773"
           inkscape:connector-curvature="0" />
      </g>
      <g
         style="font-style:normal;font-weight:normal;font-size:8.90201283px;font-family:Calibri;text-align:start;text-anchor:start;fill:#000000;stroke:#000000;stroke-width:1.81818187;stroke-miterlimit:4;stroke-dasharray:none;stroke-opacity:1"
         id="text3009"
         transform="matrix(0.66647732,0,0,0.66647732,-54.837762,276.23047)" />
      <g
         style="font-style:normal;font-weight:normal;font-size:40px;line-height:125%;font-family:Sans;letter-spacing:0px;word-spacing:0px;fill:#000000;fill-opacity:1;stroke:#000000;stroke-width:1.81818187;stroke-miterlimit:4;stroke-dasharray:none;stroke-opacity:1"
         id="flowRoot3020"
         transform="matrix(0.66647732,0,0,0.66647732,-54.837762,276.23047)" />
    </g>
  </g>
</svg>
