<svg xmlns="http://www.w3.org/2000/svg" viewBox="0 0 25 25"><defs><style>.a{fill:none;stroke:#000;stroke-linecap:square;stroke-miterlimit:10;stroke-width:1.5px;}</style></defs><path class="a" d="M1.5,20.5a2,2,0,0,0,2,2h18a2,2,0,0,0,2-2V4.5H1.5Z"/><line class="a" x1="1.5" y1="10.5" x2="23.5" y2="10.5"/><line class="a" x1="14.5" y1="6.5" x2="14.5" y2="2.5"/><line class="a" x1="10.5" y1="6.5" x2="10.5" y2="2.5"/><line class="a" x1="18.5" y1="6.5" x2="18.5" y2="2.5"/><line class="a" x1="6.5" y1="6.5" x2="6.5" y2="2.5"/><line class="a" x1="6.49" y1="14.5" x2="6.51" y2="14.5"/><line class="a" x1="6.49" y1="18.5" x2="6.51" y2="18.5"/><line class="a" x1="10.49" y1="14.5" x2="10.51" y2="14.5"/><line class="a" x1="10.49" y1="18.5" x2="10.51" y2="18.5"/><line class="a" x1="14.49" y1="14.5" x2="14.51" y2="14.5"/><line class="a" x1="14.49" y1="18.5" x2="14.51" y2="18.5"/><line class="a" x1="18.49" y1="14.5" x2="18.51" y2="14.5"/><line class="a" x1="18.49" y1="18.5" x2="18.51" y2="18.5"/></svg>