<?xml version="1.0" encoding="UTF-8" standalone="no"?>
<svg
     version="1.1"
     id="Layer_1"
     x="0px"
     y="0px"
     viewBox="0 0 122.88 106.43"
     style="enable-background:new 0 0 122.88 106.43"
     xml:space="preserve"
     xmlns="http://www.w3.org/2000/svg"
     xmlns:svg="http://www.w3.org/2000/svg"><style
         type="text/css"
         id="style2">.st0{fill-rule:evenodd;clip-rule:evenodd;}</style><g
         id="g6"><path
             class="st0"
             d="m 11.1,0 h 35.63 c 3.05,0 5.85,1.25 7.85,3.25 2.03,2.03 3.25,4.8 3.25,7.85 v 31.46 h -3.19 v -30.38 h -51.49 v 75.26 0 h 7.61 v 11.61 c 0,1.58 0.27,3.1 0.77,4.51 h -0.43 c -3.05,0 -5.85,-1.25 -7.85,-3.25 -2.03,-2.04 -3.25,-4.8 -3.25,-7.86 v -81.35 c 0,-3.05 1.25,-5.85 3.25,-7.85 2.03,-2.03 4.79,-3.25 7.85,-3.25 z m 88.99,30.42 c 0.75,-0.86 2.06,-0.95 2.91,-0.19 0.86,0.75 0.95,2.06 0.19,2.91 l -5.89,6.71 c -0.74,0.85 -2.02,0.94 -2.88,0.22 v 0 l -6.85,-5.72 c -0.88,-0.73 -0.99,-2.04 -0.26,-2.91 0.73,-0.88 2.04,-0.99 2.91,-0.26 l 3.01,2.51 c -0.82,-3.89 -2.71,-7.43 -5.48,-10.2 -3.58,-3.59 -8.66,-5.91 -14.85,-6.1 -1.14,-0.03 -2.04,-0.98 -2.01,-2.12 0.03,-1.14 0.98,-2.04 2.12,-2.01 7.33,0.22 13.37,3.01 17.67,7.31 3.48,3.49 5.8,7.98 6.71,12.9 z m 22.79,29.28 v 35.63 c 0,3.05 -1.25,5.85 -3.25,7.85 -2.03,2.03 -4.8,3.25 -7.85,3.25 h -78.9 c -3.05,0 -5.85,-1.25 -7.85,-3.25 -2.03,-2.03 -3.25,-4.8 -3.25,-7.85 v -35.63 c 0,-3.05 1.25,-5.85 3.25,-7.85 2.03,-2.03 4.79,-3.25 7.85,-3.25 h 78.9 c 3.05,0 5.85,1.25 7.85,3.25 2.03,2.03 3.25,4.79 3.25,7.85 z m -85,-7.95 v 51.49 h 72.82 v -51.49 z"
             id="path4"/></g></svg>
