<?xml version="1.0" encoding="UTF-8" standalone="no"?>
<svg
     viewBox="0 0 24 24"
     version="1.1"
     xmlns="http://www.w3.org/2000/svg"
     xmlns:svg="http://www.w3.org/2000/svg">
    <g
		 fill="#ffab0f"
         style="stroke-width:0.8"
         transform="matrix(1,0,0,1.6666667,0,-8.0000002)">
        <path
             d="m 17.4,7.46875 c 0,-0.12875 0.16299,-0.46875 0.749949,-0.46875 0.158989,0 0.304979,0.044375 0.449969,0.09375 1.771878,0.60375 3.399767,1.15625 3.399767,1.15625 v 7.4975 c 0,0 -1.912869,0.65875 -3.398767,1.15875 -0.14599,0.04937 -0.29198,0.09375 -0.450969,0.09375 -0.58296,0 -0.749949,-0.333125 -0.749949,-0.46875 z m 1.499898,0.794375 v 7.475625 c 0.587959,-0.199375 1.162919,-0.39625 1.599889,-0.54625 v -6.385 z"
             id="path2" />
        <path
             d="m 6.599685,7.46875 c 0,-0.12875 -0.1629887,-0.46875 -0.7499478,-0.46875 -0.1589899,0 -0.3049792,0.044375 -0.4499696,0.09375 -1.771879,0.6037501 -3.3997676,1.15625 -3.3997676,1.15625 v 7.4975 c 0,0 1.9128695,0.65875 3.3987677,1.15875 0.1459903,0.04938 0.2919796,0.09375 0.4509695,0.09375 0.5829592,0 0.7499478,-0.333125 0.7499478,-0.46875 z m -1.4998967,0.794375 v 7.475625 c -0.5879601,-0.199375 -1.1629206,-0.39625 -1.5998905,-0.54625 v -6.3849999 z"
             id="path4" />
        <path
             d="m 16,7 c 0,-0.552 -0.448,-1 -1,-1 h -6 c -0.552,0 -1,0.448 -1,1 v 10 c 0,0.552 0.448,1 1,1 h 6 c 0.552,0 1,-0.448 1,-1 z m -6.5,0.5 h 5 v 9 h -5 z"
             id="path6" />
    </g>
</svg>
